<svg xmlns="http://www.w3.org/2000/svg" xmlns:xlink="http://www.w3.org/1999/xlink" contentStyleType="text/css" data-diagram-type="DESCRIPTION" height="834px" preserveAspectRatio="none" style="width:975px;height:834px;background:#FFFFFF;" version="1.1" viewBox="0 0 975 834" width="975px" zoomAndPan="magnify"><title>D&#233;composition 3NF (exemple)</title><defs/><g><g class="title" data-source-line="4"><text fill="#000000" font-family="sans-serif" font-size="14" font-weight="bold" lengthAdjust="spacing" textLength="237.959" x="361.6446" y="22.9951">D&#233;composition 3NF (exemple)</text></g><!--entity flat--><g class="entity" data-entity="flat" data-source-line="6" data-uid="ent0002" id="entity_flat"><rect fill="#F1F1F1" height="264.4531" rx="2.5" ry="2.5" style="stroke:#181818;stroke-width:0.5;" width="187.5283" x="585.47" y="44.2969"/><text fill="#000000" font-family="sans-serif" font-size="14" lengthAdjust="spacing" textLength="167.5283" x="595.47" y="67.292">sales_flat (d&#233;normalis&#233;)</text><text fill="#000000" font-family="sans-serif" font-size="14" lengthAdjust="spacing" textLength="4.4502" x="595.47" y="83.5889">&#160;</text><text fill="#000000" font-family="sans-serif" font-size="14" lengthAdjust="spacing" textLength="57.3535" x="595.47" y="99.8857">order_id</text><text fill="#000000" font-family="sans-serif" font-size="14" lengthAdjust="spacing" textLength="76.1455" x="595.47" y="116.1826">ordered_at</text><text fill="#000000" font-family="sans-serif" font-size="14" lengthAdjust="spacing" textLength="111.5352" x="595.47" y="132.4795">customer_email</text><text fill="#000000" font-family="sans-serif" font-size="14" lengthAdjust="spacing" textLength="112.6289" x="595.47" y="148.7764">customer_name</text><text fill="#000000" font-family="sans-serif" font-size="14" lengthAdjust="spacing" textLength="116.7373" x="595.47" y="165.0732">customer_phone</text><text fill="#000000" font-family="sans-serif" font-size="14" lengthAdjust="spacing" textLength="85.4287" x="595.47" y="181.3701">product_sku</text><text fill="#000000" font-family="sans-serif" font-size="14" lengthAdjust="spacing" textLength="100.8574" x="595.47" y="197.667">product_name</text><text fill="#000000" font-family="sans-serif" font-size="14" lengthAdjust="spacing" textLength="108.5752" x="595.47" y="213.9639">category_name</text><text fill="#000000" font-family="sans-serif" font-size="14" lengthAdjust="spacing" textLength="68.9678" x="595.47" y="230.2607">unit_price</text><text fill="#000000" font-family="sans-serif" font-size="14" lengthAdjust="spacing" textLength="58.3652" x="595.47" y="246.5576">quantity</text><text fill="#000000" font-family="sans-serif" font-size="14" lengthAdjust="spacing" textLength="149.9463" x="595.47" y="262.8545">shipping_postal_code</text><text fill="#000000" font-family="sans-serif" font-size="14" lengthAdjust="spacing" textLength="91.8408" x="595.47" y="279.1514">shipping_city</text><text fill="#000000" font-family="sans-serif" font-size="14" lengthAdjust="spacing" textLength="91.2871" x="595.47" y="295.4482">region_name</text></g><!--entity customers--><g class="entity" data-entity="customers" data-source-line="8" data-uid="ent0003" id="entity_customers"><rect fill="#F1F1F1" height="101.4844" rx="2.5" ry="2.5" style="stroke:#181818;stroke-width:0.5;" width="128.9443" x="462.76" y="369.7569"/><text fill="#000000" font-family="sans-serif" font-size="14" lengthAdjust="spacing" textLength="73.2197" x="472.76" y="392.752">customers</text><text fill="#000000" font-family="sans-serif" font-size="14" lengthAdjust="spacing" textLength="45.7734" x="472.76" y="409.0489">id (PK)</text><text fill="#000000" font-family="sans-serif" font-size="14" lengthAdjust="spacing" textLength="108.9443" x="472.76" y="425.3457">email (UNIQUE)</text><text fill="#000000" font-family="sans-serif" font-size="14" lengthAdjust="spacing" textLength="39.7031" x="472.76" y="441.6426">name</text><text fill="#000000" font-family="sans-serif" font-size="14" lengthAdjust="spacing" textLength="43.8115" x="472.76" y="457.9395">phone</text></g><!--entity orders--><g class="entity" data-entity="orders" data-source-line="9" data-uid="ent0004" id="entity_orders"><rect fill="#F1F1F1" height="101.4844" rx="2.5" ry="2.5" style="stroke:#181818;stroke-width:0.5;" width="202.5537" x="451.96" y="556.3869"/><text fill="#000000" font-family="sans-serif" font-size="14" lengthAdjust="spacing" textLength="44.8711" x="461.96" y="579.382">orders</text><text fill="#000000" font-family="sans-serif" font-size="14" lengthAdjust="spacing" textLength="45.7734" x="461.96" y="595.6789">id (PK)</text><text fill="#000000" font-family="sans-serif" font-size="14" lengthAdjust="spacing" textLength="118.3096" x="461.96" y="611.9757">customer_id (FK)</text><text fill="#000000" font-family="sans-serif" font-size="14" lengthAdjust="spacing" textLength="182.5537" x="461.96" y="628.2726">shipping_postal_code (FK)</text><text fill="#000000" font-family="sans-serif" font-size="14" lengthAdjust="spacing" textLength="76.1455" x="461.96" y="644.5695">ordered_at</text></g><!--entity items--><g class="entity" data-entity="items" data-source-line="10" data-uid="ent0005" id="entity_items"><rect fill="#F1F1F1" height="85.1875" rx="2.5" ry="2.5" style="stroke:#181818;stroke-width:0.5;" width="204.1055" x="613.18" y="743.0169"/><text fill="#000000" font-family="sans-serif" font-size="14" lengthAdjust="spacing" textLength="83.501" x="623.18" y="766.012">order_items</text><text fill="#000000" font-family="sans-serif" font-size="14" lengthAdjust="spacing" textLength="184.1055" x="623.18" y="782.3089">(order_id, product_id) (PK)</text><text fill="#000000" font-family="sans-serif" font-size="14" lengthAdjust="spacing" textLength="58.3652" x="623.18" y="798.6057">quantity</text><text fill="#000000" font-family="sans-serif" font-size="14" lengthAdjust="spacing" textLength="68.9678" x="623.18" y="814.9026">unit_price</text></g><!--entity products--><g class="entity" data-entity="products" data-source-line="11" data-uid="ent0006" id="entity_products"><rect fill="#F1F1F1" height="117.7813" rx="2.5" ry="2.5" style="stroke:#181818;stroke-width:0.5;" width="134.2559" x="768.1" y="548.2369"/><text fill="#000000" font-family="sans-serif" font-size="14" lengthAdjust="spacing" textLength="61.4482" x="778.1" y="571.232">products</text><text fill="#000000" font-family="sans-serif" font-size="14" lengthAdjust="spacing" textLength="45.7734" x="778.1" y="587.5289">id (PK)</text><text fill="#000000" font-family="sans-serif" font-size="14" lengthAdjust="spacing" textLength="94.6094" x="778.1" y="603.8257">sku (UNIQUE)</text><text fill="#000000" font-family="sans-serif" font-size="14" lengthAdjust="spacing" textLength="114.2559" x="778.1" y="620.1226">category_id (FK)</text><text fill="#000000" font-family="sans-serif" font-size="14" lengthAdjust="spacing" textLength="39.7031" x="778.1" y="636.4195">name</text><text fill="#000000" font-family="sans-serif" font-size="14" lengthAdjust="spacing" textLength="34.8428" x="778.1" y="652.7164">price</text></g><!--entity categories--><g class="entity" data-entity="categories" data-source-line="12" data-uid="ent0007" id="entity_categories"><rect fill="#F1F1F1" height="68.8906" rx="2.5" ry="2.5" style="stroke:#181818;stroke-width:0.5;" width="130.0381" x="839.21" y="386.0469"/><text fill="#000000" font-family="sans-serif" font-size="14" lengthAdjust="spacing" textLength="73.3838" x="849.21" y="409.042">categories</text><text fill="#000000" font-family="sans-serif" font-size="14" lengthAdjust="spacing" textLength="45.7734" x="849.21" y="425.3389">id (PK)</text><text fill="#000000" font-family="sans-serif" font-size="14" lengthAdjust="spacing" textLength="110.0381" x="849.21" y="441.6357">name (UNIQUE)</text></g><!--entity postal--><g class="entity" data-entity="postal" data-source-line="13" data-uid="ent0008" id="entity_postal"><rect fill="#F1F1F1" height="85.1875" rx="2.5" ry="2.5" style="stroke:#181818;stroke-width:0.5;" width="136.4639" x="7" y="377.9069"/><text fill="#000000" font-family="sans-serif" font-size="14" lengthAdjust="spacing" textLength="90.7607" x="17" y="400.902">postal_codes</text><text fill="#000000" font-family="sans-serif" font-size="14" lengthAdjust="spacing" textLength="116.4639" x="17" y="417.1989">postal_code (PK)</text><text fill="#000000" font-family="sans-serif" font-size="14" lengthAdjust="spacing" textLength="25.3613" x="17" y="433.4957">city</text><text fill="#000000" font-family="sans-serif" font-size="14" lengthAdjust="spacing" textLength="91.2871" x="17" y="449.7926">region_name</text></g><g class="entity" data-entity="GMN20" data-source-line="29" data-uid="ent0021" id="entity_GMN20"><path d="M178.69,400.3669 L178.69,416.4969 L143.81,420.4969 L178.69,424.4969 L178.69,440.6325 A0,0 0 0 0 178.69,440.6325 L427.7676,440.6325 A0,0 0 0 0 427.7676,440.6325 L427.7676,410.3669 L417.7676,400.3669 L178.69,400.3669 A0,0 0 0 0 178.69,400.3669" fill="#FEFFDD" style="stroke:#181818;stroke-width:0.5;"/><path d="M417.7676,400.3669 L417.7676,410.3669 L427.7676,410.3669 L417.7676,400.3669" fill="#FEFFDD" style="stroke:#181818;stroke-width:0.5;"/><text fill="#000000" font-family="sans-serif" font-size="13" lengthAdjust="spacing" textLength="179.0229" x="184.69" y="417.4338">D&#233;pendance fonctionnelle :</text><text fill="#000000" font-family="sans-serif" font-size="13" lengthAdjust="spacing" textLength="228.0776" x="184.69" y="432.5666">postal_code -&gt; (city, region_name)</text></g><!--link flat to customers--><g class="link" data-entity-1="flat" data-entity-2="customers" data-source-line="15" data-uid="lnk9" id="link_flat_customers"><path d="M596.56,309.1369 C583.12,330.5269 573.1526,346.3968 561.9726,364.1868" fill="none" id="flat-to-customers" style="stroke:#181818;stroke-width:1;"/><polygon fill="#181818" points="558.78,369.2669,566.9556,363.7751,561.4405,365.0334,560.1821,359.5183,558.78,369.2669" style="stroke:#181818;stroke-width:1;"/></g><!--link flat to orders--><g class="link" data-entity-1="flat" data-entity-2="orders" data-source-line="16" data-uid="lnk10" id="link_flat_orders"><path d="M652.63,308.8969 C641.05,360.0669 626.22,418.8869 609.23,471.2369 C599.96,499.8169 589.6708,525.3481 578.7208,550.4281" fill="none" id="flat-to-orders" style="stroke:#181818;stroke-width:1;"/><polygon fill="#181818" points="576.32,555.9269,583.587,549.2793,578.3206,551.3446,576.2553,546.0782,576.32,555.9269" style="stroke:#181818;stroke-width:1;"/></g><!--link flat to items--><g class="link" data-entity-1="flat" data-entity-2="items" data-source-line="17" data-uid="lnk11" id="link_flat_items"><path d="M687.02,308.8869 C695.18,446.4269 707.1543,648.4574 712.3943,736.6874" fill="none" id="flat-to-items" style="stroke:#181818;stroke-width:1;"/><polygon fill="#181818" points="712.75,742.6769,716.2094,733.4556,712.4536,737.6857,708.2235,733.9298,712.75,742.6769" style="stroke:#181818;stroke-width:1;"/></g><!--link flat to products--><g class="link" data-entity-1="flat" data-entity-2="products" data-source-line="18" data-uid="lnk12" id="link_flat_products"><path d="M730.13,308.9469 C733.92,319.0269 737.66,329.0469 741.23,338.7569 C767.61,410.4469 794.6157,487.8441 813.3157,542.1241" fill="none" id="flat-to-products" style="stroke:#181818;stroke-width:1;"/><polygon fill="#181818" points="815.27,547.7969,816.1204,537.9848,813.6414,543.0695,808.5566,540.5906,815.27,547.7969" style="stroke:#181818;stroke-width:1;"/></g><!--link flat to categories--><g class="link" data-entity-1="flat" data-entity-2="categories" data-source-line="19" data-uid="lnk13" id="link_flat_categories"><path d="M773.35,278.7369 C808.87,316.9469 842.825,353.4523 868.685,381.2723" fill="none" id="flat-to-categories" style="stroke:#181818;stroke-width:1;"/><polygon fill="#181818" points="872.77,385.6669,869.5722,376.3516,869.3658,382.0047,863.7127,381.7983,872.77,385.6669" style="stroke:#181818;stroke-width:1;"/></g><!--link flat to postal--><g class="link" data-entity-1="flat" data-entity-2="postal" data-source-line="20" data-uid="lnk14" id="link_flat_postal"><path d="M585.12,207.1069 C479.81,241.4369 305.09,302.0569 161.23,369.7569 C155.46,372.4669 154.8713,372.6557 148.9913,375.7457" fill="none" id="flat-to-postal" style="stroke:#181818;stroke-width:1;"/><polygon fill="#181818" points="143.68,378.5369,153.5077,377.891,148.1061,376.2109,149.7862,370.8093,143.68,378.5369" style="stroke:#181818;stroke-width:1;"/></g><!--link customers to orders--><g class="link" data-entity-1="customers" data-entity-2="orders" data-source-line="22" data-uid="lnk15" id="link_customers_orders"><path d="M534.27,471.4569 C537.97,497.7369 541.6535,523.9055 545.3535,550.1855" fill="none" id="customers-to-orders" style="stroke:#181818;stroke-width:1;"/><polygon fill="#181818" points="546.19,556.1269,548.8962,546.6571,545.4929,551.1757,540.9743,547.7724,546.19,556.1269" style="stroke:#181818;stroke-width:1;"/><text fill="#000000" font-family="sans-serif" font-size="13" lengthAdjust="spacing" textLength="26.2603" x="541.23" y="514.3038">1..N</text></g><!--link orders to items--><g class="link" data-entity-1="orders" data-entity-2="items" data-source-line="23" data-uid="lnk16" id="link_orders_items"><path d="M599.22,658.2269 C623.73,684.9269 649.4717,712.9776 672.7417,738.3176" fill="none" id="orders-to-items" style="stroke:#181818;stroke-width:1;"/><polygon fill="#181818" points="676.8,742.7369,673.6588,733.4024,673.4181,739.0541,667.7664,738.8134,676.8,742.7369" style="stroke:#181818;stroke-width:1;"/><text fill="#000000" font-family="sans-serif" font-size="13" lengthAdjust="spacing" textLength="26.2603" x="650.23" y="709.0838">1..N</text></g><!--link products to items--><g class="link" data-entity-1="products" data-entity-2="items" data-source-line="24" data-uid="lnk17" id="link_products_items"><path d="M795.61,666.4069 C778.68,691.3069 762.6638,714.8553 747.1738,737.6353" fill="none" id="products-to-items" style="stroke:#181818;stroke-width:1;"/><polygon fill="#181818" points="743.8,742.5969,752.1684,737.4037,746.6115,738.4622,745.553,732.9053,743.8,742.5969" style="stroke:#181818;stroke-width:1;"/><text fill="#000000" font-family="sans-serif" font-size="13" lengthAdjust="spacing" textLength="26.2603" x="776.23" y="709.0838">1..N</text></g><!--link categories to products--><g class="link" data-entity-1="categories" data-entity-2="products" data-source-line="25" data-uid="lnk18" id="link_categories_products"><path d="M891.58,455.3569 C881.93,481.1769 870.5105,511.7366 859.1305,542.1866" fill="none" id="categories-to-products" style="stroke:#181818;stroke-width:1;"/><polygon fill="#181818" points="857.03,547.8069,863.9276,540.7767,858.7804,543.1233,856.4338,537.9761,857.03,547.8069" style="stroke:#181818;stroke-width:1;"/><text fill="#000000" font-family="sans-serif" font-size="13" lengthAdjust="spacing" textLength="26.2603" x="875.23" y="514.3038">1..N</text></g><!--link postal to orders--><g class="link" data-entity-1="postal" data-entity-2="orders" data-source-line="26" data-uid="lnk19" id="link_postal_orders"><path d="M143.61,462.6069 C149.5,465.6669 155.43,468.5869 161.23,471.2369 C257,514.9169 365.5382,550.9756 445.9282,575.3556" fill="none" id="postal-to-orders" style="stroke:#181818;stroke-width:1;"/><polygon fill="#181818" points="451.67,577.0969,444.2182,570.6571,446.8852,575.6458,441.8965,578.3127,451.67,577.0969" style="stroke:#181818;stroke-width:1;"/><text fill="#000000" font-family="sans-serif" font-size="13" lengthAdjust="spacing" textLength="26.2603" x="268.23" y="514.3038">1..N</text></g><!--SRC=[TLF1Qjmm4BthAuQSl90DXDnoA1JIG2aiBJGtWn7Is2iYZnnB9iadxNViZtKioxAMR6z-cfatxprP_jNG84VPWpzAxTuDTT1Awr7uND7Ooic6l_WHlblJKOyKm68RX0WcM8IdyqcvVd3U1EC87WxFKE47zeF5dH0ZgY2fuxuRBotwfhKoGANF9t9ZBwtnvzEkffgHnh4nEdsXRcIeIKq-k9uBs4jZ2qoonm8EHqUCXz7fION6lquRIAqoOEV6pmGdCg4PHgFu-ssIn5u-Q_97CmoSGiDsWhIDSXgBKnMRHkpOQEIv0UbXTdHXT5NbQp8Qgj-_s63K3zNBuUUVbn-C5nLHTYJ9CoLHJA9aoNxda-Vvv9hYLDfoZ1iMiY_qZGdOyuvglO1RM8CpUfVsRWbjkKNIE5nofjbID5z6OJpVGxQGeiYSAyL5fCkKmP9u7ipCIugvxKBJ5WsFNmIrf7hrMfS-8U8Fkzz_Awue7wLCCrxYo30xsJWsWLjNMfJvOSzlaJ8zFCBztTr19BGMuwwrjcwwNjssvdeUM0cYYFzi5kG2mcYwOm3NheBvuGz8Mf92Q1sf-VaJMaxyKPGXCrqrHtmBHSGxmQCmy_u3]--></g></svg>