<svg xmlns="http://www.w3.org/2000/svg" xmlns:xlink="http://www.w3.org/1999/xlink" contentStyleType="text/css" data-diagram-type="ACTIVITY" height="583px" preserveAspectRatio="none" style="width:426px;height:583px;background:#FFFFFF;" version="1.1" viewBox="0 0 426 583" width="426px" zoomAndPan="magnify"><title>Ordre logique d'ex&#233;cution d'une requ&#234;te SELECT</title><defs/><g><g class="title" data-source-line="4"><text fill="#000000" font-family="sans-serif" font-size="14" font-weight="bold" lengthAdjust="spacing" textLength="383.749" x="20" y="32.9951">Ordre logique d'ex&#233;cution d'une requ&#234;te SELECT</text></g><ellipse cx="117.6782" cy="57.2969" fill="#222222" rx="10" ry="10" style="stroke:#222222;stroke-width:1;"/><rect fill="#F1F1F1" height="33.9688" rx="12.5" ry="12.5" style="stroke:#181818;stroke-width:0.5;" width="98.2227" x="68.5669" y="87.2969"/><text fill="#000000" font-family="sans-serif" font-size="12" lengthAdjust="spacing" textLength="78.2227" x="78.5669" y="108.4355">FROM + JOIN</text><rect fill="#F1F1F1" height="33.9688" rx="12.5" ry="12.5" style="stroke:#181818;stroke-width:0.5;" width="64.3906" x="85.4829" y="141.2656"/><text fill="#000000" font-family="sans-serif" font-size="12" lengthAdjust="spacing" textLength="44.3906" x="95.4829" y="162.4043">WHERE</text><rect fill="#F1F1F1" height="33.9688" rx="12.5" ry="12.5" style="stroke:#181818;stroke-width:0.5;" width="82.4785" x="76.439" y="195.2344"/><text fill="#000000" font-family="sans-serif" font-size="12" lengthAdjust="spacing" textLength="62.4785" x="86.439" y="216.373">GROUP BY</text><rect fill="#F1F1F1" height="33.9688" rx="12.5" ry="12.5" style="stroke:#181818;stroke-width:0.5;" width="67.2559" x="84.0503" y="249.2031"/><text fill="#000000" font-family="sans-serif" font-size="12" lengthAdjust="spacing" textLength="47.2559" x="94.0503" y="270.3418">HAVING</text><rect fill="#F1F1F1" height="33.9688" rx="12.5" ry="12.5" style="stroke:#181818;stroke-width:0.5;" width="65.1758" x="85.0903" y="303.1719"/><text fill="#000000" font-family="sans-serif" font-size="12" lengthAdjust="spacing" textLength="45.1758" x="95.0903" y="324.3105">SELECT</text><rect fill="#F1F1F1" height="33.9688" rx="12.5" ry="12.5" style="stroke:#181818;stroke-width:0.5;" width="82.3203" x="76.5181" y="357.1406"/><text fill="#000000" font-family="sans-serif" font-size="12" lengthAdjust="spacing" textLength="62.3203" x="86.5181" y="378.2793">ORDER BY</text><rect fill="#F1F1F1" height="33.9688" rx="12.5" ry="12.5" style="stroke:#181818;stroke-width:0.5;" width="108.8984" x="63.229" y="411.1094"/><text fill="#000000" font-family="sans-serif" font-size="12" lengthAdjust="spacing" textLength="88.8984" x="73.229" y="432.248">LIMIT / OFFSET</text><path d="M148.6782,455.0781 L148.6782,509.043 L128.6782,513.043 L148.6782,517.043 L148.6782,571.0078 A0,0 0 0 0 148.6782,571.0078 L362.52,571.0078 A0,0 0 0 0 362.52,571.0078 L362.52,465.0781 L352.52,455.0781 L148.6782,455.0781 A0,0 0 0 0 148.6782,455.0781" fill="#FEFFDD" style="stroke:#181818;stroke-width:0.5;"/><path d="M352.52,455.0781 L352.52,465.0781 L362.52,465.0781 L352.52,455.0781" fill="#FEFFDD" style="stroke:#181818;stroke-width:0.5;"/><text fill="#000000" font-family="sans-serif" font-size="13" lengthAdjust="spacing" textLength="116.4414" x="192.8784" y="472.145">On &#233;crit souvent :</text><text fill="#000000" font-family="sans-serif" font-size="13" lengthAdjust="spacing" textLength="192.8418" x="154.6782" y="487.2778">SELECT ... FROM ... WHERE ...</text><text fill="#000000" font-family="sans-serif" font-size="13" lengthAdjust="spacing" textLength="156.0698" x="173.0642" y="502.4106">GROUP BY ... HAVING ...</text><text fill="#000000" font-family="sans-serif" font-size="13" lengthAdjust="spacing" textLength="138.7725" x="181.7129" y="517.5435">ORDER BY ... LIMIT ...</text><text fill="#000000" font-family="sans-serif" font-size="13" lengthAdjust="spacing" textLength="4.1323" x="249.033" y="532.6763">&#160;</text><text fill="#000000" font-family="sans-serif" font-size="13" lengthAdjust="spacing" textLength="137.1157" x="182.5413" y="547.8091">Mais l'&#233;valuation suit</text><text fill="#000000" font-family="sans-serif" font-size="13" lengthAdjust="spacing" textLength="115.4512" x="193.3735" y="562.9419">cet ordre logique.</text><ellipse cx="117.6782" cy="513.043" fill="none" rx="11" ry="11" style="stroke:#222222;stroke-width:1;"/><ellipse cx="117.6782" cy="513.043" fill="#222222" rx="6" ry="6" style="stroke:#222222;stroke-width:1;"/><line style="stroke:#181818;stroke-width:1;" x1="117.6782" x2="117.6782" y1="67.2969" y2="87.2969"/><polygon fill="#181818" points="113.6782,77.2969,117.6782,87.2969,121.6782,77.2969,117.6782,81.2969" style="stroke:#181818;stroke-width:1;"/><line style="stroke:#181818;stroke-width:1;" x1="117.6782" x2="117.6782" y1="121.2656" y2="141.2656"/><polygon fill="#181818" points="113.6782,131.2656,117.6782,141.2656,121.6782,131.2656,117.6782,135.2656" style="stroke:#181818;stroke-width:1;"/><line style="stroke:#181818;stroke-width:1;" x1="117.6782" x2="117.6782" y1="175.2344" y2="195.2344"/><polygon fill="#181818" points="113.6782,185.2344,117.6782,195.2344,121.6782,185.2344,117.6782,189.2344" style="stroke:#181818;stroke-width:1;"/><line style="stroke:#181818;stroke-width:1;" x1="117.6782" x2="117.6782" y1="229.2031" y2="249.2031"/><polygon fill="#181818" points="113.6782,239.2031,117.6782,249.2031,121.6782,239.2031,117.6782,243.2031" style="stroke:#181818;stroke-width:1;"/><line style="stroke:#181818;stroke-width:1;" x1="117.6782" x2="117.6782" y1="283.1719" y2="303.1719"/><polygon fill="#181818" points="113.6782,293.1719,117.6782,303.1719,121.6782,293.1719,117.6782,297.1719" style="stroke:#181818;stroke-width:1;"/><line style="stroke:#181818;stroke-width:1;" x1="117.6782" x2="117.6782" y1="337.1406" y2="357.1406"/><polygon fill="#181818" points="113.6782,347.1406,117.6782,357.1406,121.6782,347.1406,117.6782,351.1406" style="stroke:#181818;stroke-width:1;"/><line style="stroke:#181818;stroke-width:1;" x1="117.6782" x2="117.6782" y1="391.1094" y2="411.1094"/><polygon fill="#181818" points="113.6782,401.1094,117.6782,411.1094,121.6782,401.1094,117.6782,405.1094" style="stroke:#181818;stroke-width:1;"/><line style="stroke:#181818;stroke-width:1;" x1="117.6782" x2="117.6782" y1="445.0781" y2="502.043"/><polygon fill="#181818" points="113.6782,492.043,117.6782,502.043,121.6782,492.043,117.6782,496.043" style="stroke:#181818;stroke-width:1;"/><!--SRC=[JP11JiCm44NtSuhPTO4KzcLL86c3cXgb0SJIIgQfXMktzhZqIkKQkHYEeo8szlV_yhnl-ozbZjB90_gzxEotCZtkfFO4_Y_fQ2U3veOklD2gDmSoZ6rSo06mOaqeNES8jUtLAH1sCxeCrpQmiYOUWY5qT0h33nDkytN-r01ubevXNjIYmZjy4UNc0UOVgxpEuxwinTihFdv6kLgybvjb5DF5A4JzdDTJk2whii5x54MnpMFcsHu1Z8qSf_ezWp0OYpZ5w6quZxtdC0t2BCimqKUHmAE26phP4ppvDsho9-veGoMLHpqRhcUfWqmlza4njCHe__zA1cGw7Blz0W00]--></g></svg>