<svg xmlns="http://www.w3.org/2000/svg" xmlns:xlink="http://www.w3.org/1999/xlink" contentStyleType="text/css" data-diagram-type="CLASS" height="406px" preserveAspectRatio="none" style="width:601px;height:406px;background:#FFFFFF;" version="1.1" viewBox="0 0 601 406" width="601px" zoomAndPan="magnify"><title>SQL vs NoSQL (document) &#8212; une commande</title><defs/><g><g class="title" data-source-line="4"><text fill="#000000" font-family="sans-serif" font-size="14" font-weight="bold" lengthAdjust="spacing" textLength="350.7451" x="118.1274" y="22.9951">SQL vs NoSQL (document) &#8212; une commande</text></g><!--cluster SQL (relationnel)--><g class="cluster" data-entity="SQL .relationnel." data-source-line="6" data-uid="ent0002" id="cluster_SQL .relationnel."><path d="M8.5,51.4369 L144.0586,51.4369 A3.75,3.75 0 0 1 146.5586,53.9369 L153.5586,73.7337 L231.5,73.7337 A2.5,2.5 0 0 1 234,76.2337 L234,397.1669 A2.5,2.5 0 0 1 231.5,399.6669 L8.5,399.6669 A2.5,2.5 0 0 1 6,397.1669 L6,53.9369 A2.5,2.5 0 0 1 8.5,51.4369" fill="none" style="stroke:#000000;stroke-width:1.5;"/><line style="stroke:#000000;stroke-width:1.5;" x1="6" x2="153.5586" y1="73.7337" y2="73.7337"/><text fill="#000000" font-family="sans-serif" font-size="14" font-weight="bold" lengthAdjust="spacing" textLength="134.5586" x="10" y="66.432">SQL (relationnel)</text></g><!--cluster NoSQL (document)--><g class="cluster" data-entity="NoSQL .document." data-source-line="23" data-uid="ent0006" id="cluster_NoSQL .document."><path d="M260.5,43.2969 L410.0586,43.2969 A3.75,3.75 0 0 1 412.5586,45.7969 L419.5586,65.5938 L591.5,65.5938 A2.5,2.5 0 0 1 594,68.0938 L594,221.2769 A2.5,2.5 0 0 1 591.5,223.7769 L260.5,223.7769 A2.5,2.5 0 0 1 258,221.2769 L258,45.7969 A2.5,2.5 0 0 1 260.5,43.2969" fill="none" style="stroke:#000000;stroke-width:1.5;"/><line style="stroke:#000000;stroke-width:1.5;" x1="258" x2="419.5586" y1="65.5938" y2="65.5938"/><text fill="#000000" font-family="sans-serif" font-size="14" font-weight="bold" lengthAdjust="spacing" textLength="148.5586" x="262" y="58.292">NoSQL (document)</text></g><!--class orders--><g class="entity" data-entity="orders" data-source-line="7" data-uid="ent0003" id="entity_orders"><rect fill="#F1F1F1" height="113.1875" rx="2.5" ry="2.5" style="stroke:#181818;stroke-width:0.5;" width="130.3096" x="54.85" y="86.4369"/><ellipse cx="93.8973" cy="102.4369" fill="#ADD1B2" rx="11" ry="11" style="stroke:#181818;stroke-width:1;"/><path d="M96.8661,108.0775 Q96.2879,108.3744 95.6473,108.515 Q95.0067,108.6712 94.3036,108.6712 Q91.8036,108.6712 90.4754,107.0306 Q89.1629,105.3744 89.1629,102.2494 Q89.1629,99.1244 90.4754,97.4681 Q91.8036,95.8119 94.3036,95.8119 Q95.0067,95.8119 95.6473,95.9681 Q96.3036,96.1244 96.8661,96.4212 L96.8661,99.14 Q96.2411,98.5619 95.6473,98.2962 Q95.0536,98.015 94.4286,98.015 Q93.0848,98.015 92.3973,99.0931 Q91.7098,100.1556 91.7098,102.2494 Q91.7098,104.3431 92.3973,105.4212 Q93.0848,106.4837 94.4286,106.4837 Q95.0536,106.4837 95.6473,106.2181 Q96.2411,105.9369 96.8661,105.3587 L96.8661,108.0775 Z " fill="#000000"/><text fill="#000000" font-family="sans-serif" font-size="14" lengthAdjust="spacing" textLength="44.8711" x="113.2412" y="107.2836">orders</text><line style="stroke:#181818;stroke-width:0.5;" x1="55.85" x2="184.1596" y1="118.4369" y2="118.4369"/><text fill="#000000" font-family="sans-serif" font-size="14" lengthAdjust="spacing" textLength="76.1455" x="60.85" y="135.432">ordered_at</text><text fill="#000000" font-family="sans-serif" font-size="14" lengthAdjust="spacing" textLength="43.0186" x="60.85" y="151.7289">status</text><line style="stroke:#181818;stroke-width:0.5;" x1="55.85" x2="184.1596" y1="159.0306" y2="159.0306"/><text fill="#000000" font-family="sans-serif" font-size="14" lengthAdjust="spacing" textLength="45.7734" x="60.85" y="176.0257">id (PK)</text><text fill="#000000" font-family="sans-serif" font-size="14" lengthAdjust="spacing" textLength="118.3096" x="60.85" y="192.3226">customer_id (FK)</text></g><!--class order_items--><g class="entity" data-entity="order_items" data-source-line="14" data-uid="ent0004" id="entity_order_items"><rect fill="#F1F1F1" height="96.8906" rx="2.5" ry="2.5" style="stroke:#181818;stroke-width:0.5;" width="196.1055" x="21.95" y="286.7769"/><ellipse cx="74.0022" cy="302.7769" fill="#ADD1B2" rx="11" ry="11" style="stroke:#181818;stroke-width:1;"/><path d="M76.971,308.4175 Q76.3929,308.7144 75.7522,308.855 Q75.1116,309.0113 74.4085,309.0113 Q71.9085,309.0113 70.5804,307.3706 Q69.2679,305.7144 69.2679,302.5894 Q69.2679,299.4644 70.5804,297.8081 Q71.9085,296.1519 74.4085,296.1519 Q75.1116,296.1519 75.7522,296.3081 Q76.4085,296.4644 76.971,296.7613 L76.971,299.48 Q76.346,298.9019 75.7522,298.6363 Q75.1585,298.355 74.5335,298.355 Q73.1897,298.355 72.5022,299.4331 Q71.8147,300.4956 71.8147,302.5894 Q71.8147,304.6831 72.5022,305.7613 Q73.1897,306.8238 74.5335,306.8238 Q75.1585,306.8238 75.7522,306.5581 Q76.346,306.2769 76.971,305.6988 L76.971,308.4175 Z " fill="#000000"/><text fill="#000000" font-family="sans-serif" font-size="14" lengthAdjust="spacing" textLength="83.501" x="94.5022" y="307.6236">order_items</text><line style="stroke:#181818;stroke-width:0.5;" x1="22.95" x2="217.0555" y1="318.7769" y2="318.7769"/><text fill="#000000" font-family="sans-serif" font-size="14" lengthAdjust="spacing" textLength="58.3652" x="27.95" y="335.772">quantity</text><text fill="#000000" font-family="sans-serif" font-size="14" lengthAdjust="spacing" textLength="68.9678" x="27.95" y="352.0689">unit_price</text><line style="stroke:#181818;stroke-width:0.5;" x1="22.95" x2="217.0555" y1="359.3706" y2="359.3706"/><text fill="#000000" font-family="sans-serif" font-size="14" lengthAdjust="spacing" textLength="184.1055" x="27.95" y="376.3657">(order_id, product_id) (PK)</text></g><!--class order_document--><g class="entity" data-entity="order_document" data-source-line="24" data-uid="ent0007" id="entity_order_document"><rect fill="#F1F1F1" height="129.4844" rx="2.5" ry="2.5" style="stroke:#181818;stroke-width:0.5;" width="303.1768" x="274.41" y="78.2969"/><ellipse cx="364.1419" cy="94.2969" fill="#ADD1B2" rx="11" ry="11" style="stroke:#181818;stroke-width:1;"/><path d="M367.1107,99.9375 Q366.5326,100.2344 365.8919,100.375 Q365.2513,100.5313 364.5482,100.5313 Q362.0482,100.5313 360.7201,98.8906 Q359.4076,97.2344 359.4076,94.1094 Q359.4076,90.9844 360.7201,89.3281 Q362.0482,87.6719 364.5482,87.6719 Q365.2513,87.6719 365.8919,87.8281 Q366.5482,87.9844 367.1107,88.2813 L367.1107,91 Q366.4857,90.4219 365.8919,90.1563 Q365.2982,89.875 364.6732,89.875 Q363.3294,89.875 362.6419,90.9531 Q361.9544,92.0156 361.9544,94.1094 Q361.9544,96.2031 362.6419,97.2813 Q363.3294,98.3438 364.6732,98.3438 Q365.2982,98.3438 365.8919,98.0781 Q366.4857,97.7969 367.1107,97.2188 L367.1107,99.9375 Z " fill="#000000"/><text fill="#000000" font-family="sans-serif" font-size="14" lengthAdjust="spacing" textLength="115.2129" x="384.6419" y="99.1436">order_document</text><line style="stroke:#181818;stroke-width:0.5;" x1="275.41" x2="576.5868" y1="110.2969" y2="110.2969"/><text fill="#000000" font-family="sans-serif" font-size="14" lengthAdjust="spacing" textLength="19.7764" x="280.41" y="127.292">_id</text><text fill="#000000" font-family="sans-serif" font-size="14" lengthAdjust="spacing" textLength="85.7021" x="280.41" y="143.5889">customer_id</text><text fill="#000000" font-family="sans-serif" font-size="14" lengthAdjust="spacing" textLength="76.1455" x="280.41" y="159.8857">ordered_at</text><text fill="#000000" font-family="sans-serif" font-size="14" lengthAdjust="spacing" textLength="43.0186" x="280.41" y="176.1826">status</text><text fill="#000000" font-family="sans-serif" font-size="14" lengthAdjust="spacing" textLength="291.1768" x="280.41" y="192.4795">items[] {product_id, quantity, unit_price}</text><line style="stroke:#181818;stroke-width:0.5;" x1="275.41" x2="576.5868" y1="199.7813" y2="199.7813"/></g><!--link orders to order_items--><g class="link" data-entity-1="orders" data-entity-2="order_items" data-source-line="20" data-uid="lnk5" id="link_orders_order_items"><path codeLine="20" d="M120,200.0669 C120,227.4569 120,254.0869 120,280.3069" fill="none" id="orders-to-order_items" style="stroke:#181818;stroke-width:1;"/><polygon fill="#181818" points="120,286.3069,124,277.3069,120,281.3069,116,277.3069,120,286.3069" style="stroke:#181818;stroke-width:1;"/><text fill="#000000" font-family="sans-serif" font-size="13" lengthAdjust="spacing" textLength="38.4858" x="121" y="252.8438">lignes</text><text fill="#000000" font-family="sans-serif" font-size="13" lengthAdjust="spacing" textLength="8.271" x="111.5526" y="219.6035">1</text><text fill="#000000" font-family="sans-serif" font-size="13" lengthAdjust="spacing" textLength="23.0356" x="95.4567" y="275.8019">0..*</text></g><!--SRC=[VP3BIiH044Nt_HL5Leba1jsw4DouKKJHdKWekYjZC_s8tTK-609-X5_ebvWqoRm4TxTk5LNtL5nhrs502_45bN_NRWKjcaWYRZkAMao67-c3BurUEKkEmL3BGh1cG_1mVmDl4MxzA4hbPHf7AlZv-eRa2AIt5fqY8JgKQrmH57aoa47MtZaoLG4R0I0DnWW-A0en6m1QGNbtNMKjKsHlAJIZUJMPUPfKWvpBoCWf3h8NXmiRpMJdhULagHgwu5MIFEXgT-areHlWFdEHdEQc2rhIl7PAM9mLi5XSG76wN9uK1sVEONmLHT7lKHz_w0zqCxUcc4EeO_1_cOTtZTUVdc6pmwgtDFKUIfzP-by0]--></g></svg>